<?xml version="1.0" standalone="no"?><svg xmlns="http://www.w3.org/2000/svg" viewBox="0 0 1440 320"><path fill="#5000ca" fill-opacity="1" d="M0,64L40,96C80,128,160,192,240,197.3C320,203,400,149,480,128C560,107,640,117,720,138.7C800,160,880,192,960,202.7C1040,213,1120,203,1200,170.7C1280,139,1360,85,1400,58.7L1440,32L1440,320L1400,320C1360,320,1280,320,1200,320C1120,320,1040,320,960,320C880,320,800,320,720,320C640,320,560,320,480,320C400,320,320,320,240,320C160,320,80,320,40,320L0,320Z"></path></svg>